<svg id="visual" viewBox="0 0 540 960" width="540" height="960" xmlns="http://www.w3.org/2000/svg" xmlns:xlink="http://www.w3.org/1999/xlink" version="1.1"><rect x="0" y="0" width="540" height="960" fill="#f5f7fa"></rect><defs><linearGradient id="grad1_0" x1="0%" y1="0%" x2="100%" y2="100%"><stop offset="30%" stop-color="#7e6bff" stop-opacity="1"></stop><stop offset="70%" stop-color="#7e6bff" stop-opacity="1"></stop></linearGradient></defs><defs><linearGradient id="grad1_1" x1="0%" y1="0%" x2="100%" y2="100%"><stop offset="30%" stop-color="#7e6bff" stop-opacity="1"></stop><stop offset="70%" stop-color="#9eb8ff" stop-opacity="1"></stop></linearGradient></defs><defs><linearGradient id="grad1_2" x1="0%" y1="0%" x2="100%" y2="100%"><stop offset="30%" stop-color="#f5f7fa" stop-opacity="1"></stop><stop offset="70%" stop-color="#9eb8ff" stop-opacity="1"></stop></linearGradient></defs><defs><linearGradient id="grad2_0" x1="0%" y1="0%" x2="100%" y2="100%"><stop offset="30%" stop-color="#7e6bff" stop-opacity="1"></stop><stop offset="70%" stop-color="#7e6bff" stop-opacity="1"></stop></linearGradient></defs><defs><linearGradient id="grad2_1" x1="0%" y1="0%" x2="100%" y2="100%"><stop offset="30%" stop-color="#9eb8ff" stop-opacity="1"></stop><stop offset="70%" stop-color="#7e6bff" stop-opacity="1"></stop></linearGradient></defs><defs><linearGradient id="grad2_2" x1="0%" y1="0%" x2="100%" y2="100%"><stop offset="30%" stop-color="#9eb8ff" stop-opacity="1"></stop><stop offset="70%" stop-color="#f5f7fa" stop-opacity="1"></stop></linearGradient></defs><g transform="translate(540, 0)"><path d="M0 270C-31.7 261.5 -63.4 253.1 -100.6 243C-137.9 232.9 -180.7 221.1 -190.9 190.9C-201.2 160.7 -178.9 112.2 -186.6 77.3C-194.4 42.4 -232.2 21.2 -270 0L0 0Z" fill="#c5d9ff"></path><path d="M0 180C-21.1 174.4 -42.3 168.7 -67.1 162C-91.9 155.2 -120.4 147.4 -127.3 127.3C-134.1 107.2 -119.2 74.8 -124.4 51.5C-129.6 28.3 -154.8 14.1 -180 0L0 0Z" fill="#8594ff"></path><path d="M0 90C-10.6 87.2 -21.1 84.4 -33.5 81C-46 77.6 -60.2 73.7 -63.6 63.6C-67.1 53.6 -59.6 37.4 -62.2 25.8C-64.8 14.1 -77.4 7.1 -90 0L0 0Z" fill="#7e6bff"></path></g><g transform="translate(0, 960)"><path d="M0 -270C39.9 -270.9 79.7 -271.8 103.3 -249.4C126.9 -227.1 134.2 -181.6 154.1 -154.1C174.1 -126.7 206.8 -117.2 228.2 -94.5C249.6 -71.8 259.8 -35.9 270 0L0 0Z" fill="#c5d9ff"></path><path d="M0 -180C26.6 -180.6 53.2 -181.2 68.9 -166.3C84.6 -151.4 89.5 -121.1 102.8 -102.8C116.1 -84.4 137.8 -78.1 152.1 -63C166.4 -47.9 173.2 -23.9 180 0L0 0Z" fill="#8594ff"></path><path d="M0 -90C13.3 -90.3 26.6 -90.6 34.4 -83.1C42.3 -75.7 44.7 -60.5 51.4 -51.4C58 -42.2 68.9 -39.1 76.1 -31.5C83.2 -23.9 86.6 -12 90 0L0 0Z" fill="#7e6bff"></path></g></svg>