<svg id="visual" viewBox="0 0 900 600" width="900" height="600" xmlns="http://www.w3.org/2000/svg" xmlns:xlink="http://www.w3.org/1999/xlink" version="1.1"><rect x="0" y="0" width="900" height="600" fill="#121026"></rect><defs><linearGradient id="grad1_0" x1="33.3%" y1="0%" x2="100%" y2="100%"><stop offset="20%" stop-color="#9b8aff" stop-opacity="1"></stop><stop offset="80%" stop-color="#9b8aff" stop-opacity="1"></stop></linearGradient></defs><defs><linearGradient id="grad1_1" x1="33.3%" y1="0%" x2="100%" y2="100%"><stop offset="20%" stop-color="#9b8aff" stop-opacity="1"></stop><stop offset="80%" stop-color="#4f4a8b" stop-opacity="1"></stop></linearGradient></defs><defs><linearGradient id="grad1_2" x1="33.3%" y1="0%" x2="100%" y2="100%"><stop offset="20%" stop-color="#121026" stop-opacity="1"></stop><stop offset="80%" stop-color="#4f4a8b" stop-opacity="1"></stop></linearGradient></defs><defs><linearGradient id="grad2_0" x1="0%" y1="0%" x2="66.7%" y2="100%"><stop offset="20%" stop-color="#9b8aff" stop-opacity="1"></stop><stop offset="80%" stop-color="#9b8aff" stop-opacity="1"></stop></linearGradient></defs><defs><linearGradient id="grad2_1" x1="0%" y1="0%" x2="66.7%" y2="100%"><stop offset="20%" stop-color="#4f4a8b" stop-opacity="1"></stop><stop offset="80%" stop-color="#9b8aff" stop-opacity="1"></stop></linearGradient></defs><defs><linearGradient id="grad2_2" x1="0%" y1="0%" x2="66.7%" y2="100%"><stop offset="20%" stop-color="#4f4a8b" stop-opacity="1"></stop><stop offset="80%" stop-color="#121026" stop-opacity="1"></stop></linearGradient></defs><g transform="translate(900, 0)"><path d="M0 270.4C-27.3 239 -54.6 207.5 -78.1 188.5C-101.5 169.4 -121.1 162.7 -152.7 152.7C-184.4 142.8 -228.2 129.5 -249.8 103.5C-271.5 77.5 -270.9 38.7 -270.4 0L0 0Z" fill="#2e2c56"></path><path d="M0 180.3C-18.2 159.3 -36.4 138.4 -52 125.6C-67.7 112.9 -80.7 108.5 -101.8 101.8C-122.9 95.2 -152.1 86.3 -166.6 69C-181 51.7 -180.6 25.8 -180.3 0L0 0Z" fill="#7369c4"></path><path d="M0 90.1C-9.1 79.7 -18.2 69.2 -26 62.8C-33.8 56.5 -40.4 54.2 -50.9 50.9C-61.5 47.6 -76.1 43.2 -83.3 34.5C-90.5 25.8 -90.3 12.9 -90.1 0L0 0Z" fill="#9b8aff"></path></g><g transform="translate(0, 600)"><path d="M0 -270.4C25.4 -237.6 50.8 -204.9 78.8 -190.3C106.9 -175.8 137.5 -179.4 169 -169C200.5 -158.6 232.8 -134 249.8 -103.5C266.9 -73 268.6 -36.5 270.4 0L0 0Z" fill="#2e2c56"></path><path d="M0 -180.3C16.9 -158.4 33.9 -136.6 52.6 -126.9C71.2 -117.2 91.7 -119.6 112.7 -112.7C133.7 -105.7 155.2 -89.3 166.6 -69C177.9 -48.6 179.1 -24.3 180.3 0L0 0Z" fill="#7369c4"></path><path d="M0 -90.1C8.5 -79.2 16.9 -68.3 26.3 -63.4C35.6 -58.6 45.8 -59.8 56.3 -56.3C66.8 -52.9 77.6 -44.7 83.3 -34.5C89 -24.3 89.5 -12.2 90.1 0L0 0Z" fill="#9b8aff"></path></g></svg>