<svg id="visual" viewBox="0 0 540 960" width="540" height="960" xmlns="http://www.w3.org/2000/svg" xmlns:xlink="http://www.w3.org/1999/xlink" version="1.1"><rect x="0" y="0" width="540" height="960" fill="#121026"></rect><defs><linearGradient id="grad1_0" x1="0%" y1="0%" x2="100%" y2="100%"><stop offset="30%" stop-color="#9b8aff" stop-opacity="1"></stop><stop offset="70%" stop-color="#9b8aff" stop-opacity="1"></stop></linearGradient></defs><defs><linearGradient id="grad1_1" x1="0%" y1="0%" x2="100%" y2="100%"><stop offset="30%" stop-color="#9b8aff" stop-opacity="1"></stop><stop offset="70%" stop-color="#4f4a8b" stop-opacity="1"></stop></linearGradient></defs><defs><linearGradient id="grad1_2" x1="0%" y1="0%" x2="100%" y2="100%"><stop offset="30%" stop-color="#121026" stop-opacity="1"></stop><stop offset="70%" stop-color="#4f4a8b" stop-opacity="1"></stop></linearGradient></defs><defs><linearGradient id="grad2_0" x1="0%" y1="0%" x2="100%" y2="100%"><stop offset="30%" stop-color="#9b8aff" stop-opacity="1"></stop><stop offset="70%" stop-color="#9b8aff" stop-opacity="1"></stop></linearGradient></defs><defs><linearGradient id="grad2_1" x1="0%" y1="0%" x2="100%" y2="100%"><stop offset="30%" stop-color="#4f4a8b" stop-opacity="1"></stop><stop offset="70%" stop-color="#9b8aff" stop-opacity="1"></stop></linearGradient></defs><defs><linearGradient id="grad2_2" x1="0%" y1="0%" x2="100%" y2="100%"><stop offset="30%" stop-color="#4f4a8b" stop-opacity="1"></stop><stop offset="70%" stop-color="#121026" stop-opacity="1"></stop></linearGradient></defs><g transform="translate(540, 0)"><path d="M0 270C-31.9 251.5 -63.9 233 -88.8 214.3C-113.7 195.7 -131.6 177 -160.5 160.5C-189.4 144 -229.4 129.7 -249.4 103.3C-269.5 76.9 -269.8 38.5 -270 0L0 0Z" fill="#2e2c56"></path><path d="M0 180C-21.3 167.7 -42.6 155.3 -59.2 142.9C-75.8 130.5 -87.7 118 -107 107C-126.3 96 -152.9 86.5 -166.3 68.9C-179.7 51.3 -179.8 25.6 -180 0L0 0Z" fill="#7369c4"></path><path d="M0 90C-10.6 83.8 -21.3 77.7 -29.6 71.4C-37.9 65.2 -43.9 59 -53.5 53.5C-63.1 48 -76.5 43.2 -83.1 34.4C-89.8 25.6 -89.9 12.8 -90 0L0 0Z" fill="#9b8aff"></path></g><g transform="translate(0, 960)"><path d="M0 -270C34 -257.9 68 -245.8 94.5 -228.2C121 -210.6 140.1 -187.6 167.6 -167.6C195.1 -147.6 231 -130.7 249.4 -103.3C267.9 -75.9 269 -38 270 0L0 0Z" fill="#2e2c56"></path><path d="M0 -180C22.7 -171.9 45.3 -163.9 63 -152.1C80.7 -140.4 93.4 -125 111.7 -111.7C130 -98.4 154 -87.2 166.3 -68.9C178.6 -50.6 179.3 -25.3 180 0L0 0Z" fill="#7369c4"></path><path d="M0 -90C11.3 -86 22.7 -81.9 31.5 -76.1C40.3 -70.2 46.7 -62.5 55.9 -55.9C65 -49.2 77 -43.6 83.1 -34.4C89.3 -25.3 89.7 -12.7 90 0L0 0Z" fill="#9b8aff"></path></g></svg>