<svg id="visual" viewBox="0 0 900 600" width="900" height="600" xmlns="http://www.w3.org/2000/svg" xmlns:xlink="http://www.w3.org/1999/xlink" version="1.1"><rect x="0" y="0" width="900" height="600" fill="#f5f7fa"></rect><defs><linearGradient id="grad1_0" x1="33.3%" y1="0%" x2="100%" y2="100%"><stop offset="20%" stop-color="#7e6bff" stop-opacity="1"></stop><stop offset="80%" stop-color="#7e6bff" stop-opacity="1"></stop></linearGradient></defs><defs><linearGradient id="grad1_1" x1="33.3%" y1="0%" x2="100%" y2="100%"><stop offset="20%" stop-color="#7e6bff" stop-opacity="1"></stop><stop offset="80%" stop-color="#9eb8ff" stop-opacity="1"></stop></linearGradient></defs><defs><linearGradient id="grad1_2" x1="33.3%" y1="0%" x2="100%" y2="100%"><stop offset="20%" stop-color="#f5f7fa" stop-opacity="1"></stop><stop offset="80%" stop-color="#9eb8ff" stop-opacity="1"></stop></linearGradient></defs><defs><linearGradient id="grad2_0" x1="0%" y1="0%" x2="66.7%" y2="100%"><stop offset="20%" stop-color="#7e6bff" stop-opacity="1"></stop><stop offset="80%" stop-color="#7e6bff" stop-opacity="1"></stop></linearGradient></defs><defs><linearGradient id="grad2_1" x1="0%" y1="0%" x2="66.7%" y2="100%"><stop offset="20%" stop-color="#9eb8ff" stop-opacity="1"></stop><stop offset="80%" stop-color="#7e6bff" stop-opacity="1"></stop></linearGradient></defs><defs><linearGradient id="grad2_2" x1="0%" y1="0%" x2="66.7%" y2="100%"><stop offset="20%" stop-color="#9eb8ff" stop-opacity="1"></stop><stop offset="80%" stop-color="#f5f7fa" stop-opacity="1"></stop></linearGradient></defs><g transform="translate(900, 0)"><path d="M0 270.4C-39.4 270.8 -78.7 271.3 -103.5 249.8C-128.3 228.4 -138.5 185.1 -157 157C-175.5 128.8 -202.4 115.9 -222.7 92.2C-242.9 68.6 -256.7 34.3 -270.4 0L0 0Z" fill="#c5d9ff"></path><path d="M0 180.3C-26.2 180.6 -52.5 180.8 -69 166.6C-85.5 152.3 -92.3 123.4 -104.7 104.7C-117 85.9 -134.9 77.2 -148.4 61.5C-162 45.7 -171.1 22.9 -180.3 0L0 0Z" fill="#8594ff"></path><path d="M0 90.1C-13.1 90.3 -26.2 90.4 -34.5 83.3C-42.8 76.1 -46.2 61.7 -52.3 52.3C-58.5 42.9 -67.5 38.6 -74.2 30.7C-81 22.9 -85.6 11.4 -90.1 0L0 0Z" fill="#7e6bff"></path></g><g transform="translate(0, 600)"><path d="M0 -270.4C32.9 -257.3 65.8 -244.2 94.9 -229.1C124 -214 149.3 -196.9 176.8 -176.8C204.2 -156.6 233.9 -133.5 249.8 -103.5C265.8 -73.5 268.1 -36.8 270.4 0L0 0Z" fill="#c5d9ff"></path><path d="M0 -180.3C21.9 -171.5 43.9 -162.8 63.3 -152.7C82.7 -142.7 99.5 -131.3 117.9 -117.9C136.2 -104.4 155.9 -89 166.6 -69C177.2 -49 178.7 -24.5 180.3 0L0 0Z" fill="#8594ff"></path><path d="M0 -90.1C11 -85.8 21.9 -81.4 31.6 -76.4C41.3 -71.3 49.8 -65.6 58.9 -58.9C68.1 -52.2 78 -44.5 83.3 -34.5C88.6 -24.5 89.4 -12.3 90.1 0L0 0Z" fill="#7e6bff"></path></g></svg>